<?xml version="1.0" standalone="no"?>
<!DOCTYPE svg PUBLIC "-//W3C//DTD SVG 20010904//EN"
 "http://www.w3.org/TR/2001/REC-SVG-20010904/DTD/svg10.dtd">
<svg version="1.0" xmlns="http://www.w3.org/2000/svg"
 width="1000.000000pt" height="1000.000000pt" viewBox="0 0 1000.000000 1000.000000"
 preserveAspectRatio="xMidYMid meet">
<metadata>
Created by potrace 1.14, written by Peter Selinger 2001-2017
</metadata>
<g transform="translate(0.000000,1000.000000) scale(0.100000,-0.100000)"
fill="#000000" stroke="none">
<path d="M4757 9543 c-1 -1 -38 -4 -82 -7 -44 -4 -98 -8 -120 -11 -22 -3 -65
-7 -95 -10 -256 -26 -597 -102 -896 -201 -541 -179 -1100 -492 -1502 -841
-281 -245 -509 -486 -708 -753 -65 -86 -188 -268 -239 -352 -11 -18 -27 -44
-35 -58 -50 -82 -178 -330 -223 -430 -129 -288 -249 -652 -303 -920 -3 -14
-10 -45 -16 -70 -5 -25 -12 -58 -14 -75 -3 -16 -11 -70 -19 -120 -8 -49 -17
-117 -20 -150 -4 -33 -8 -71 -10 -85 -20 -134 -26 -590 -11 -810 4 -63 9 -117
11 -120 2 -3 6 -35 9 -71 9 -97 61 -388 91 -512 81 -338 206 -680 365 -997 34
-69 65 -129 70 -135 4 -5 22 -37 40 -70 18 -33 58 -100 89 -150 446 -715 1102
-1310 1846 -1673 293 -144 704 -293 956 -347 9 -2 61 -13 115 -25 55 -12 108
-23 119 -25 11 -2 65 -10 120 -19 55 -8 125 -18 155 -21 30 -3 66 -8 80 -10
187 -29 736 -26 985 5 44 6 98 13 120 16 22 2 63 9 90 14 28 5 66 12 85 14 19
2 79 14 134 26 54 12 108 23 119 26 11 2 35 8 53 14 18 6 44 13 58 16 47 8
284 84 403 128 525 196 970 458 1388 818 151 129 354 332 470 468 50 58 92
107 95 110 12 10 159 208 216 290 198 283 391 655 519 1001 66 178 147 450
170 567 2 11 12 62 23 113 11 52 23 114 26 139 3 25 8 56 11 70 6 28 13 84 20
150 3 25 7 59 10 75 26 173 26 765 0 940 -3 17 -12 80 -20 140 -22 168 -61
374 -87 470 -6 22 -12 45 -14 50 -30 141 -138 457 -229 670 -53 126 -214 441
-270 530 -72 115 -82 130 -121 190 -263 395 -616 774 -999 1071 -82 64 -291
212 -340 241 -11 6 -60 36 -110 66 -360 219 -788 396 -1213 503 -73 19 -143
36 -155 38 -12 2 -69 13 -127 24 -58 11 -123 23 -145 27 -22 3 -51 7 -65 10
-14 2 -52 7 -85 10 -33 3 -73 8 -90 10 -88 12 -245 18 -458 19 -131 1 -239 0
-240 -1z m595 -107 c217 -20 448 -56 654 -101 644 -140 1394 -520 1894 -960
105 -93 156 -141 265 -250 99 -99 238 -254 324 -360 86 -106 220 -301 334
-483 91 -146 252 -481 334 -692 62 -162 169 -519 188 -627 3 -18 12 -61 20
-96 8 -35 19 -94 25 -132 5 -39 12 -80 14 -93 3 -13 8 -50 11 -83 4 -33 8 -69
10 -80 27 -139 27 -765 -1 -964 -2 -16 -6 -55 -9 -85 -3 -30 -8 -68 -12 -85
-3 -16 -7 -37 -8 -45 -57 -412 -225 -919 -443 -1342 -574 -1112 -1581 -1925
-2793 -2253 -200 -54 -462 -106 -609 -120 -30 -3 -68 -7 -85 -10 -124 -19
-632 -26 -810 -12 -187 16 -420 49 -570 83 -38 9 -81 18 -94 20 -51 10 -252
67 -370 105 -390 125 -803 328 -1136 557 -173 119 -401 300 -391 309 2 3 22 9
43 14 21 5 46 12 55 14 10 3 27 7 39 10 11 2 29 7 39 10 10 3 27 7 37 9 10 2
135 34 278 71 143 36 268 68 278 71 9 2 26 6 37 9 11 3 28 7 38 9 9 2 46 12
82 21 36 9 72 18 80 20 8 2 43 10 76 19 34 9 66 16 72 16 6 0 31 -39 57 -87
201 -378 536 -685 936 -859 92 -40 265 -96 329 -108 14 -2 45 -9 70 -15 60
-13 143 -23 210 -25 48 -1 56 2 66 23 18 36 2 58 -54 75 -140 43 -214 98 -294
220 -55 85 -80 172 -80 277 0 48 5 96 11 107 6 12 11 28 11 37 0 41 64 149
125 209 111 112 247 164 400 153 339 -24 562 -360 450 -677 -52 -147 -162
-256 -319 -315 -87 -33 -106 -56 -79 -95 14 -20 22 -22 72 -17 76 8 137 17
191 28 25 5 56 11 70 13 39 6 166 44 245 73 576 211 1030 705 1189 1294 26 98
30 115 45 214 33 206 31 428 -5 625 -75 415 -256 752 -570 1065 l-81 80 3 145
c1 80 5 381 9 670 4 289 8 577 9 641 l2 117 93 92 c170 170 295 352 395 577
43 95 100 254 111 308 28 131 42 218 50 306 7 74 -4 93 -52 87 -22 -2 -30 -11
-41 -43 -55 -158 -106 -228 -227 -307 -66 -43 -164 -77 -240 -81 -122 -7 -285
48 -370 124 -45 41 -115 139 -138 194 -62 148 -43 342 47 478 91 137 257 229
416 229 219 1 416 -129 486 -321 41 -111 41 -111 72 -111 55 0 60 27 36 200
-63 448 -322 910 -669 1196 -33 27 -62 52 -65 55 -3 3 -25 19 -50 34 -25 15
-47 31 -50 35 -13 19 -252 144 -347 183 -76 31 -85 26 -138 -69 -73 -130 -211
-243 -361 -294 -88 -31 -118 -35 -239 -34 -93 0 -122 4 -190 28 -169 58 -309
171 -386 312 l-42 75 -45 -3 -45 -3 -42 166 -42 166 77 12 c154 23 297 40 395
47 55 3 101 7 103 9 5 4 529 -3 584 -9z m-1208 -266 c24 -96 44 -176 43 -176
-1 -1 -38 -20 -82 -43 -89 -46 -96 -50 -178 -105 -31 -22 -59 -37 -61 -35 -2
2 -27 60 -56 129 -29 69 -60 143 -70 165 -43 98 -60 138 -60 140 0 6 198 64
275 81 103 23 140 29 142 25 1 -3 22 -85 47 -181z m-510 -68 c27 -64 56 -133
64 -152 8 -19 22 -53 32 -75 9 -22 24 -57 33 -78 19 -41 22 -67 9 -67 -15 0
-208 -196 -264 -267 -238 -301 -377 -628 -416 -978 -12 -113 -10 -138 17 -151
36 -18 58 -2 75 54 26 88 56 141 118 207 203 217 526 225 735 19 97 -97 148
-215 152 -354 5 -218 -124 -408 -335 -492 -128 -51 -299 -37 -429 37 -109 61
-189 160 -235 289 -22 63 -28 71 -53 74 -49 6 -59 -12 -53 -92 7 -74 10 -99
26 -181 6 -27 12 -60 14 -72 11 -53 51 -184 81 -262 199 -515 603 -915 1120
-1109 97 -37 205 -69 277 -82 29 -6 62 -12 74 -14 12 -2 45 -7 75 -11 30 -4
55 -8 57 -10 2 -2 5 -29 6 -60 5 -105 84 -178 191 -177 101 1 176 75 181 179
1 30 4 56 6 58 2 2 30 6 63 10 33 3 75 9 95 15 19 5 49 11 65 13 58 9 233 63
305 94 115 49 248 120 330 175 52 35 100 66 106 70 7 5 10 -42 8 -155 -1 -89
-5 -407 -9 -707 -4 -300 -8 -546 -8 -547 -1 0 -45 26 -97 59 -200 126 -444
229 -630 265 -14 3 -29 6 -35 7 -9 2 -91 17 -120 21 -5 1 -25 3 -42 3 -27 2
-35 8 -46 35 -19 43 -65 90 -105 106 -46 19 -114 15 -161 -9 -39 -19 -91 -81
-91 -107 0 -7 -2 -13 -4 -13 -3 0 -67 -11 -143 -25 -343 -62 -681 -221 -920
-431 -336 -297 -540 -639 -632 -1059 -18 -83 -23 -114 -36 -233 -7 -65 -8
-258 0 -337 14 -160 48 -318 102 -477 15 -43 25 -80 22 -82 -2 -2 -105 -29
-229 -60 -124 -31 -232 -58 -240 -60 -66 -18 -578 -148 -590 -151 -8 -2 -43
-10 -76 -19 -34 -9 -67 -16 -73 -16 -12 0 -179 163 -286 280 -269 292 -491
614 -680 985 -86 170 -103 207 -153 330 -11 28 -30 75 -42 105 -29 71 -104
299 -136 415 -30 109 -77 323 -90 405 -2 19 -9 58 -14 85 -5 28 -12 78 -15
113 -4 35 -8 71 -10 80 -26 139 -27 786 0 962 2 14 7 52 11 85 3 33 7 67 9 75
1 8 6 35 10 60 11 70 14 93 20 120 3 14 8 39 11 55 28 156 116 467 184 649
232 627 566 1154 1024 1612 184 184 452 410 601 507 22 15 58 39 80 55 134 95
497 295 655 361 30 13 73 32 95 42 36 17 293 116 305 118 3 0 27 -52 54 -117z
m713 -215 c29 -49 122 -151 169 -187 83 -63 155 -100 249 -130 94 -29 143 -35
255 -33 82 1 121 7 200 28 106 27 225 97 322 188 29 27 134 161 140 178 4 11
99 -26 168 -65 19 -10 55 -31 80 -45 56 -32 197 -130 241 -168 143 -122 309
-317 391 -458 87 -149 183 -378 213 -510 l6 -30 -38 35 c-20 19 -40 38 -43 41
-19 21 -137 82 -195 101 -56 18 -92 23 -180 23 -126 0 -150 -4 -225 -36 -113
-47 -198 -112 -266 -202 -42 -57 -81 -129 -89 -166 -2 -9 -11 -45 -21 -81 -63
-241 85 -549 317 -662 41 -20 88 -39 106 -43 l31 -6 -5 -402 c-5 -469 12 -409
-153 -519 -185 -124 -400 -218 -613 -268 -115 -26 -119 -26 -64 10 55 37 158
145 182 192 46 88 56 111 68 165 49 210 -9 426 -154 573 -126 128 -254 182
-434 185 l-110 2 -37 149 c-20 82 -55 219 -77 304 -21 85 -112 441 -200 790
-88 349 -187 740 -220 868 -32 127 -56 232 -52 232 3 0 21 -24 38 -53z m-130
1 c0 -13 87 -360 103 -413 5 -16 12 -41 14 -55 3 -14 24 -97 46 -185 23 -88
43 -167 45 -175 1 -8 40 -159 85 -335 45 -176 83 -327 85 -335 2 -8 11 -44 20
-80 9 -36 18 -72 20 -80 5 -23 143 -573 150 -596 5 -17 5 -17 -4 1 -6 11 -65
151 -131 310 -67 160 -127 304 -135 320 -7 17 -25 59 -40 95 -15 36 -33 79
-40 95 -8 17 -37 86 -66 155 -28 69 -57 139 -65 155 -7 17 -92 219 -189 450
-97 231 -183 433 -191 449 -8 16 -14 34 -14 41 0 15 117 93 225 152 44 23 80
43 81 43 0 0 1 -6 1 -12z m-247 -583 c51 -121 101 -238 111 -261 10 -22 27
-65 39 -94 12 -29 29 -72 39 -94 10 -23 31 -72 46 -111 16 -38 35 -80 43 -92
8 -13 12 -23 9 -23 -3 0 8 -30 24 -67 38 -87 37 -83 104 -243 31 -74 63 -148
70 -165 16 -38 96 -228 175 -415 34 -80 67 -158 75 -175 13 -29 13 -30 -24
-55 -101 -68 -168 -141 -225 -243 -76 -136 -86 -362 -23 -512 43 -102 137
-217 231 -279 42 -28 40 -31 -14 -17 -19 6 -51 12 -70 15 -19 3 -84 21 -145
41 -577 188 -1027 657 -1193 1244 -12 41 -20 76 -19 77 1 2 20 -14 42 -34 113
-104 220 -149 380 -158 117 -7 202 9 297 56 127 63 219 152 276 265 26 52 36
79 59 165 3 8 6 56 9 106 11 259 -155 501 -407 592 -62 22 -93 26 -192 28
-101 2 -129 -1 -186 -21 -100 -34 -163 -69 -226 -127 -22 -21 -43 -38 -47 -38
-18 0 55 216 122 357 98 206 214 368 384 536 l89 89 27 -64 c15 -34 69 -162
120 -283z m2790 -1532 c-34 -120 -46 -156 -85 -248 -78 -182 -207 -379 -344
-525 l-61 -65 2 351 3 352 55 1 c152 2 319 71 414 170 17 17 31 31 32 31 2 0
-6 -30 -16 -67z m-1601 -299 c214 -72 350 -258 351 -480 0 -146 -39 -249 -136
-353 -100 -108 -217 -162 -363 -165 -143 -4 -273 48 -369 147 -66 68 -72 75
-72 81 0 4 -10 23 -23 44 -52 83 -72 228 -48 351 28 138 143 285 274 349 37
17 75 32 84 32 10 0 24 4 31 9 7 4 54 8 105 9 73 0 107 -4 166 -24z m-71
-1178 c11 -91 -112 -137 -162 -61 -15 23 -22 76 -11 87 3 3 42 5 88 4 l82 -1
3 -29z m-51 -591 c48 -20 35 -30 -43 -30 -71 0 -81 9 -31 30 40 18 31 18 74 0z
m28 -137 c11 -10 -48 -36 -73 -32 -30 5 -62 22 -62 33 0 9 125 9 135 -1z
m-232 -32 c33 -48 59 -70 96 -86 81 -33 178 -2 230 74 l30 43 58 -9 c179 -27
299 -60 458 -126 158 -66 341 -172 414 -241 l27 -26 -3 -225 c-3 -224 -10
-562 -12 -589 -1 -8 -4 -12 -7 -8 -10 10 -135 -41 -193 -80 -113 -74 -198
-183 -246 -313 -23 -63 -28 -93 -30 -190 l-3 -114 -168 -43 c-93 -24 -230 -59
-304 -78 -74 -20 -144 -37 -155 -39 -11 -2 -110 -27 -220 -56 -110 -28 -208
-53 -217 -56 -10 -2 -27 -6 -38 -9 -11 -3 -28 -7 -38 -9 -9 -2 -37 -9 -62 -16
-25 -7 -52 -13 -60 -15 -18 -4 -257 -64 -285 -72 -11 -3 0 10 25 30 129 101
211 269 216 447 6 183 -57 338 -187 460 -80 75 -124 102 -230 141 -55 21 -82
24 -189 24 -142 0 -199 -14 -322 -81 -41 -22 -133 -109 -174 -165 -20 -28 -38
-48 -40 -47 -6 6 35 173 66 266 155 475 523 882 985 1089 149 67 335 121 480
139 22 3 41 7 42 8 11 11 38 -2 56 -28z m1626 -691 c170 -227 289 -497 335
-765 l6 -35 -26 40 c-40 60 -112 132 -174 174 -95 64 -168 89 -286 98 l-82 6
3 211 c2 116 4 274 5 351 1 77 4 144 7 149 8 12 128 -117 212 -229z m-2636
-589 c61 -8 176 -53 197 -77 3 -3 22 -18 43 -34 39 -29 113 -120 134 -165 39
-81 46 -111 49 -205 6 -165 -35 -273 -146 -384 -102 -103 -220 -152 -365 -152
-141 1 -248 45 -353 146 -111 108 -155 213 -155 370 1 149 52 265 166 373 30
28 58 52 62 52 4 0 19 8 33 19 36 24 114 49 187 59 63 8 72 8 148 -2z m2517
-1 c61 -6 132 -29 172 -57 14 -10 29 -18 32 -18 3 0 18 -10 33 -22 136 -116
196 -241 195 -413 0 -146 -52 -267 -159 -366 -105 -99 -204 -139 -343 -140
-158 -2 -267 45 -382 164 -49 51 -116 162 -105 174 3 2 15 6 28 9 13 2 82 19
153 37 l128 33 37 -37 c150 -150 394 25 301 215 -57 119 -235 139 -312 35 -27
-36 -50 -94 -41 -103 9 -9 -35 -24 -147 -51 -58 -14 -112 -27 -120 -29 -58
-15 -60 -13 -60 59 0 263 192 483 445 512 28 3 52 7 54 9 3 2 12 2 20 0 9 -3
41 -7 71 -11z m-28 -429 c27 -20 46 -63 40 -91 -10 -55 -83 -91 -132 -65 -25
13 -50 60 -47 90 3 38 50 80 89 80 18 0 41 -7 50 -14z m-613 -313 c44 -121
177 -259 309 -319 147 -67 360 -70 498 -7 98 44 209 139 268 227 31 47 31 48
6 -65 -105 -470 -410 -898 -820 -1152 -144 -88 -370 -185 -510 -216 l-40 -9
51 57 c158 176 194 451 87 666 -105 212 -288 330 -528 340 -273 12 -517 -158
-598 -415 -31 -96 -35 -132 -31 -267 3 -92 115 -317 176 -356 7 -4 13 -12 13
-17 0 -7 -22 -3 -135 30 -78 23 -261 104 -355 158 -270 155 -495 377 -658 648
-66 109 -82 150 -60 151 7 0 33 6 58 13 25 7 53 14 62 16 40 9 65 15 353 89
165 42 307 78 315 80 8 2 132 33 275 70 143 36 267 68 275 70 8 2 44 11 80 20
36 9 72 18 80 20 8 2 96 24 195 50 216 56 214 55 245 61 14 2 32 7 40 10 8 3
24 8 35 10 11 2 79 20 150 39 72 18 135 34 140 34 6 1 17 -16 24 -36z m-2363
-221 c27 -24 54 -46 59 -50 61 -44 185 -92 237 -92 17 0 29 -3 25 -6 -5 -5
-116 -36 -249 -70 -49 -12 -59 -14 -77 -18 -16 -4 -24 8 -45 67 -30 84 -64
207 -72 257 -3 19 -8 44 -11 55 -3 11 15 -7 39 -40 25 -33 67 -79 94 -103z"/>
<path d="M4723 8958 c-54 -26 -50 -114 6 -138 82 -34 149 63 86 125 -25 26
-56 31 -92 13z"/>
<path d="M5185 8945 c-16 -15 -25 -36 -25 -55 0 -36 38 -80 69 -80 61 0 99 50
81 105 -18 56 -84 72 -125 30z"/>
<path d="M4949 8882 c-28 -25 -31 -32 -25 -65 12 -66 85 -89 131 -42 41 40 26
106 -28 125 -41 14 -43 14 -78 -18z"/>
<path d="M6518 7417 c-127 -65 -138 -238 -19 -322 37 -26 51 -30 107 -29 52 1
71 6 102 28 147 102 84 333 -93 342 -39 2 -65 -3 -97 -19z m125 -88 c25 -11
45 -40 48 -69 3 -33 -2 -48 -27 -74 -44 -43 -110 -32 -138 23 -21 39 -16 69
15 102 29 31 61 37 102 18z"/>
<path d="M4945 1794 c-46 -49 -20 -115 49 -128 22 -4 35 1 57 24 34 34 37 67
8 104 -28 36 -81 36 -114 0z"/>
<path d="M4769 1745 c-25 -14 -47 -49 -43 -72 1 -7 2 -17 3 -23 3 -22 46 -50
78 -50 44 0 73 30 73 75 0 32 -26 74 -47 76 -5 0 -15 2 -24 4 -8 1 -26 -3 -40
-10z"/>
<path d="M5165 1748 c-31 -16 -45 -39 -45 -73 0 -32 30 -70 60 -76 51 -10 99
39 92 94 -5 44 -68 76 -107 55z"/>
<path d="M4946 1328 c-74 -20 -136 -107 -136 -191 0 -105 120 -198 225 -175
95 21 149 88 150 185 0 52 -4 67 -30 104 -48 67 -130 98 -209 77z m94 -103
c97 -50 40 -194 -65 -164 -81 24 -89 131 -12 164 41 18 42 18 77 0z"/>
<path d="M3900 7522 c-78 -27 -58 -152 23 -152 42 0 65 17 76 55 16 59 -42
116 -99 97z"/>
<path d="M3952 7314 c-67 -47 -34 -144 49 -144 31 0 69 44 69 80 0 37 -39 80
-72 80 -13 0 -34 -7 -46 -16z"/>
<path d="M3870 7108 c-23 -25 -27 -75 -7 -101 31 -44 117 -34 133 15 12 34 11
41 -2 69 -22 45 -89 54 -124 17z"/>
<path d="M3950 3013 c-34 -23 -40 -33 -40 -68 1 -93 129 -106 153 -16 9 34
-17 77 -54 90 -18 6 -33 11 -33 11 -1 0 -13 -8 -26 -17z"/>
<path d="M4000 2801 c-35 -35 -33 -74 6 -108 43 -39 96 -25 119 30 11 27 11
36 -1 59 -28 55 -81 63 -124 19z"/>
<path d="M3930 2608 c-37 -40 -21 -107 31 -126 40 -14 72 0 92 40 15 31 16 41
6 60 -28 52 -92 65 -129 26z"/>
</g>
</svg>
